<?xml version="1.0" encoding="UTF-8" standalone="no"?>
<!DOCTYPE svg PUBLIC "-//W3C//DTD SVG 20010904//EN"
              "http://www.w3.org/TR/2001/REC-SVG-20010904/DTD/svg10.dtd">

<svg xmlns="http://www.w3.org/2000/svg"
     width="8.52in" height="11.0133in"
     viewBox="0 0 2556 3304">
  <path id="CV"
        fill="none" stroke="black" stroke-width="1"
        d="M 1286.00,1694.00
           C 1286.00,1694.00 1292.05,1710.00 1292.05,1710.00
             1292.82,1712.07 1294.54,1715.75 1294.08,1717.90
             1293.46,1720.78 1289.39,1722.80 1287.00,1724.14
             1280.23,1727.94 1271.56,1731.56 1264.00,1733.35
             1230.65,1741.23 1197.25,1733.17 1180.32,1701.00
             1175.65,1692.14 1172.19,1679.90 1170.59,1670.00
             1169.02,1660.23 1168.38,1649.90 1168.87,1640.00
             1168.87,1640.00 1168.87,1632.00 1168.87,1632.00
             1169.04,1604.46 1179.73,1570.31 1205.00,1556.04
             1223.24,1545.74 1251.35,1545.87 1271.00,1551.88
             1275.56,1553.28 1289.85,1558.79 1291.32,1563.32
             1292.03,1565.49 1290.41,1568.97 1289.58,1571.00
             1287.25,1576.61 1284.59,1582.13 1283.00,1588.00
             1283.00,1588.00 1264.00,1580.08 1264.00,1580.08
             1248.20,1574.66 1230.66,1573.45 1217.04,1584.67
             1208.92,1591.35 1204.55,1602.90 1202.61,1613.00
             1198.71,1633.32 1198.64,1663.83 1206.87,1683.00
             1213.22,1697.77 1226.29,1708.57 1243.00,1707.49
             1251.94,1706.91 1260.77,1704.65 1269.00,1701.13
             1274.94,1698.58 1279.52,1695.22 1286.00,1694.00 Z
           M 1308.00,1551.00
           C 1308.00,1551.00 1340.00,1551.00 1340.00,1551.00
             1340.00,1551.00 1364.66,1629.00 1364.66,1629.00
             1364.66,1629.00 1383.00,1686.00 1383.00,1686.00
             1383.00,1686.00 1407.67,1609.00 1407.67,1609.00
             1407.67,1609.00 1426.00,1551.00 1426.00,1551.00
             1426.00,1551.00 1458.00,1551.00 1458.00,1551.00
             1458.00,1551.00 1440.00,1607.00 1440.00,1607.00
             1440.00,1607.00 1412.67,1691.00 1412.67,1691.00
             1412.67,1691.00 1403.28,1720.00 1403.28,1720.00
             1402.48,1722.66 1400.33,1730.49 1398.30,1732.01
             1396.63,1733.26 1393.04,1733.00 1391.00,1733.00
             1391.00,1733.00 1373.00,1733.00 1373.00,1733.00
             1366.32,1732.88 1366.71,1732.14 1363.33,1722.00
             1363.33,1722.00 1353.33,1691.00 1353.33,1691.00
             1353.33,1691.00 1321.98,1595.00 1321.98,1595.00
             1321.98,1595.00 1308.00,1551.00 1308.00,1551.00 Z" />
</svg>
