<?xml version="1.0" encoding="UTF-8" standalone="no"?>
<!DOCTYPE svg PUBLIC "-//W3C//DTD SVG 20010904//EN"
              "http://www.w3.org/TR/2001/REC-SVG-20010904/DTD/svg10.dtd">

<svg xmlns="http://www.w3.org/2000/svg"
     width="8.5in" height="11in"
     viewBox="0 0 2550 3300">
  <path id="V2"
        fill="#F0F0FF" stroke="black" stroke-width="1px"
        d="M 818.00,1230.00
           C 818.00,1230.00 850.00,1230.00 850.00,1230.00
             850.00,1230.00 874.66,1308.00 874.66,1308.00
             874.66,1308.00 893.00,1365.00 893.00,1365.00
             893.00,1365.00 917.67,1288.00 917.67,1288.00
             917.67,1288.00 936.00,1230.00 936.00,1230.00
             936.00,1230.00 968.00,1230.00 968.00,1230.00
             968.00,1230.00 950.00,1286.00 950.00,1286.00
             950.00,1286.00 922.67,1370.00 922.67,1370.00
             922.67,1370.00 913.28,1399.00 913.28,1399.00
             912.48,1401.66 910.33,1409.49 908.30,1411.01
             906.63,1412.26 903.04,1412.00 901.00,1412.00
             901.00,1412.00 883.00,1412.00 883.00,1412.00
             876.32,1411.88 876.71,1411.14 873.33,1401.00
             873.33,1401.00 863.33,1370.00 863.33,1370.00
             863.33,1370.00 831.98,1274.00 831.98,1274.00
             831.98,1274.00 818.00,1230.00 818.00,1230.00 Z
           M 1185.00,1343.00
           C 1185.00,1343.00 1206.00,1343.00 1206.00,1343.00
             1206.00,1343.00 1206.00,1405.00 1206.00,1405.00
             1206.00,1405.00 1219.00,1405.00 1219.00,1405.00
             1219.00,1405.00 1219.00,1412.00 1219.00,1412.00
             1219.00,1412.00 1198.00,1412.00 1198.00,1412.00
             1198.00,1412.00 1198.00,1350.00 1198.00,1350.00
             1198.00,1350.00 1185.00,1350.00 1185.00,1350.00
             1185.00,1350.00 1185.00,1343.00 1185.00,1343.00 Z
           M 1085.98,1404.00
           C 1086.30,1405.79 1087.11,1408.68 1085.98,1410.27
             1083.27,1414.01 1068.13,1413.19 1064.00,1412.07
             1051.93,1408.80 1046.07,1397.97 1046.08,1386.00
             1046.08,1379.67 1048.76,1370.77 1053.21,1366.14
             1061.01,1358.14 1075.02,1357.84 1082.79,1366.14
             1088.79,1372.48 1089.00,1378.89 1089.00,1387.00
             1089.00,1387.00 1054.00,1387.00 1054.00,1387.00
             1054.62,1390.05 1055.25,1393.21 1056.68,1396.00
             1063.22,1408.71 1074.63,1406.14 1085.98,1404.00 Z
           M 1321.00,1364.00
           C 1326.01,1361.87 1332.54,1360.25 1338.00,1360.04
             1366.90,1358.91 1354.89,1389.06 1359.00,1412.00
             1359.00,1412.00 1351.00,1412.00 1351.00,1412.00
             1351.00,1412.00 1351.00,1404.00 1351.00,1404.00
             1344.50,1409.49 1339.45,1414.44 1330.00,1412.66
             1319.56,1410.70 1314.89,1396.78 1322.23,1389.21
             1327.92,1383.34 1342.08,1382.17 1350.00,1382.00
             1349.95,1379.64 1349.97,1377.24 1349.11,1375.00
             1344.56,1363.16 1331.67,1367.67 1323.00,1371.00
             1323.00,1371.00 1321.00,1364.00 1321.00,1364.00 Z
           M 1620.00,1405.00
           C 1616.99,1407.84 1614.93,1409.92 1611.00,1411.52
             1601.29,1415.49 1592.71,1411.21 1588.33,1402.00
             1581.83,1388.34 1584.25,1361.41 1603.00,1360.10
             1610.42,1359.58 1614.56,1362.42 1620.00,1367.00
             1620.00,1367.00 1620.00,1361.00 1620.00,1361.00
             1620.00,1361.00 1628.00,1361.00 1628.00,1361.00
             1628.00,1361.00 1628.00,1432.00 1628.00,1432.00
             1628.00,1432.00 1620.00,1432.00 1620.00,1432.00
             1620.00,1432.00 1620.00,1405.00 1620.00,1405.00 Z
           M 1895.98,1404.00
           C 1896.30,1405.79 1897.11,1408.68 1895.98,1410.27
             1893.27,1414.01 1878.13,1413.19 1874.00,1412.07
             1861.93,1408.80 1856.07,1397.97 1856.08,1386.00
             1856.08,1379.67 1858.76,1370.77 1863.21,1366.14
             1871.01,1358.14 1885.02,1357.84 1892.79,1366.14
             1898.79,1372.48 1899.00,1378.89 1899.00,1387.00
             1899.00,1387.00 1864.00,1387.00 1864.00,1387.00
             1864.62,1390.05 1865.25,1393.21 1866.68,1396.00
             1873.22,1408.71 1884.63,1406.14 1895.98,1404.00 Z
           M 1454.00,1361.00
           C 1454.00,1361.00 1492.00,1361.00 1492.00,1361.00
             1491.45,1368.09 1486.98,1372.44 1482.88,1378.00
             1482.88,1378.00 1463.00,1405.00 1463.00,1405.00
             1463.00,1405.00 1492.00,1405.00 1492.00,1405.00
             1492.00,1405.00 1492.00,1412.00 1492.00,1412.00
             1492.00,1412.00 1453.00,1412.00 1453.00,1412.00
             1453.54,1404.49 1457.57,1400.86 1461.85,1395.00
             1461.85,1395.00 1482.00,1368.00 1482.00,1368.00
             1482.00,1368.00 1454.00,1368.00 1454.00,1368.00
             1454.00,1368.00 1454.00,1361.00 1454.00,1361.00 Z
           M 1723.00,1361.00
           C 1723.00,1361.00 1731.00,1361.00 1731.00,1361.00
             1731.00,1361.00 1731.00,1392.00 1731.00,1392.00
             1731.05,1396.12 1731.21,1399.62 1734.28,1402.77
             1740.83,1409.52 1751.43,1401.83 1753.98,1396.96
             1755.41,1394.22 1755.00,1388.23 1755.00,1385.00
             1755.00,1385.00 1755.00,1361.00 1755.00,1361.00
             1755.00,1361.00 1763.00,1361.00 1763.00,1361.00
             1763.00,1361.00 1763.00,1412.00 1763.00,1412.00
             1763.00,1412.00 1755.00,1412.00 1755.00,1412.00
             1755.00,1412.00 1755.00,1405.00 1755.00,1405.00
             1751.79,1407.35 1748.72,1410.01 1745.00,1411.52
             1736.55,1414.96 1726.97,1412.56 1724.35,1403.00
             1722.14,1394.92 1723.00,1370.72 1723.00,1361.00 Z
           M 1994.00,1361.00
           C 1994.00,1361.00 2032.00,1361.00 2032.00,1361.00
             2031.45,1368.09 2026.98,1372.44 2022.88,1378.00
             2022.88,1378.00 2003.00,1405.00 2003.00,1405.00
             2003.00,1405.00 2032.00,1405.00 2032.00,1405.00
             2032.00,1405.00 2032.00,1412.00 2032.00,1412.00
             2032.00,1412.00 1993.00,1412.00 1993.00,1412.00
             1993.54,1404.49 1997.57,1400.86 2001.85,1395.00
             2001.85,1395.00 2022.00,1368.00 2022.00,1368.00
             2022.00,1368.00 1994.00,1368.00 1994.00,1368.00
             1994.00,1368.00 1994.00,1361.00 1994.00,1361.00 Z
           M 1081.00,1380.00
           C 1080.40,1376.20 1079.74,1373.14 1076.78,1370.39
             1069.76,1363.88 1056.40,1366.88 1055.00,1380.00
             1055.00,1380.00 1081.00,1380.00 1081.00,1380.00 Z
           M 1604.00,1367.42
           C 1593.16,1371.30 1591.33,1385.13 1594.17,1395.00
             1596.20,1402.05 1601.09,1407.42 1609.00,1405.44
             1612.80,1404.49 1617.02,1401.50 1618.83,1397.99
             1619.99,1395.72 1619.96,1393.46 1620.00,1391.00
             1620.10,1383.07 1621.68,1375.83 1614.98,1370.28
             1611.34,1367.26 1608.52,1366.86 1604.00,1367.42 Z
           M 1891.00,1380.00
           C 1890.40,1376.20 1889.74,1373.14 1886.78,1370.39
             1879.76,1363.88 1866.40,1366.88 1865.00,1380.00
             1865.00,1380.00 1891.00,1380.00 1891.00,1380.00 Z
           M 1350.00,1389.00
           C 1350.00,1389.00 1339.00,1390.16 1339.00,1390.16
             1335.95,1390.56 1331.63,1391.51 1329.31,1393.65
             1325.76,1396.93 1326.58,1402.96 1331.11,1404.99
             1334.91,1406.70 1339.67,1405.52 1343.00,1403.30
             1344.87,1402.06 1347.19,1399.88 1348.40,1398.00
             1350.28,1395.07 1349.99,1392.31 1350.00,1389.00 Z
           M 799.00,1613.00
           C 799.00,1613.00 805.05,1629.00 805.05,1629.00
             805.82,1631.07 807.54,1634.75 807.08,1636.90
             806.46,1639.78 802.39,1641.80 800.00,1643.14
             793.23,1646.94 784.56,1650.56 777.00,1652.35
             743.65,1660.23 710.25,1652.17 693.32,1620.00
             688.65,1611.14 685.19,1598.90 683.59,1589.00
             682.02,1579.23 681.38,1568.90 681.87,1559.00
             681.87,1559.00 681.87,1551.00 681.87,1551.00
             682.04,1523.46 692.73,1489.31 718.00,1475.04
             736.24,1464.74 764.35,1464.87 784.00,1470.88
             788.56,1472.28 802.85,1477.79 804.32,1482.32
             805.03,1484.49 803.41,1487.97 802.58,1490.00
             800.25,1495.61 797.59,1501.13 796.00,1507.00
             796.00,1507.00 777.00,1499.08 777.00,1499.08
             761.20,1493.66 743.66,1492.45 730.04,1503.67
             721.92,1510.35 717.55,1521.90 715.61,1532.00
             711.71,1552.32 711.64,1582.83 719.87,1602.00
             726.22,1616.77 739.29,1627.57 756.00,1626.49
             764.94,1625.91 773.77,1623.65 782.00,1620.13
             787.94,1617.58 792.52,1614.22 799.00,1613.00 Z
           M 1327.15,1583.04
           C 1335.36,1580.75 1335.05,1589.94 1330.86,1591.34
             1327.29,1592.54 1321.27,1588.28 1327.15,1583.04 Z
           M 1713.00,1583.00
           C 1713.00,1583.00 1734.00,1583.00 1734.00,1583.00
             1734.00,1583.00 1734.00,1645.00 1734.00,1645.00
             1734.00,1645.00 1747.00,1645.00 1747.00,1645.00
             1747.00,1645.00 1747.00,1652.00 1747.00,1652.00
             1747.00,1652.00 1726.00,1652.00 1726.00,1652.00
             1726.00,1652.00 1726.00,1590.00 1726.00,1590.00
             1726.00,1590.00 1713.00,1590.00 1713.00,1590.00
             1713.00,1590.00 1713.00,1583.00 1713.00,1583.00 Z
           M 1049.00,1611.00
           C 1057.58,1601.13 1062.96,1596.36 1076.00,1603.00
             1076.00,1603.00 1074.00,1610.00 1074.00,1610.00
             1071.34,1609.12 1067.66,1607.37 1065.00,1607.37
             1059.62,1607.38 1055.06,1611.86 1052.22,1616.00
             1050.90,1617.94 1049.92,1619.69 1049.20,1622.00
             1049.20,1622.00 1049.20,1652.00 1049.20,1652.00
             1049.20,1652.00 1042.00,1652.00 1042.00,1652.00
             1042.00,1652.00 1042.00,1601.00 1042.00,1601.00
             1042.00,1601.00 1049.00,1601.00 1049.00,1601.00
             1049.00,1601.00 1049.00,1611.00 1049.00,1611.00 Z
           M 1184.00,1611.00
           C 1192.58,1601.13 1197.96,1596.36 1211.00,1603.00
             1211.00,1603.00 1209.00,1610.00 1209.00,1610.00
             1206.34,1609.12 1202.66,1607.37 1200.00,1607.37
             1194.62,1607.38 1190.06,1611.86 1187.22,1616.00
             1185.90,1617.94 1184.92,1619.69 1184.20,1622.00
             1184.20,1622.00 1184.20,1652.00 1184.20,1652.00
             1184.20,1652.00 1177.00,1652.00 1177.00,1652.00
             1177.00,1652.00 1177.00,1601.00 1177.00,1601.00
             1177.00,1601.00 1184.00,1601.00 1184.00,1601.00
             1184.00,1601.00 1184.00,1611.00 1184.00,1611.00 Z
           M 1479.00,1644.00
           C 1480.86,1652.04 1477.44,1652.63 1470.00,1652.96
             1462.23,1653.30 1455.34,1652.64 1449.00,1647.61
             1435.75,1637.10 1436.64,1613.18 1451.00,1603.97
             1459.67,1598.41 1470.53,1599.49 1480.00,1602.00
             1480.00,1602.00 1478.00,1609.00 1478.00,1609.00
             1469.09,1607.21 1460.68,1604.74 1453.21,1612.21
             1442.34,1623.08 1448.86,1644.77 1465.00,1645.90
             1469.63,1646.23 1474.46,1644.85 1479.00,1644.00 Z
           M 1861.00,1600.47
           C 1869.30,1599.31 1876.84,1600.48 1882.66,1607.09
             1893.23,1619.08 1891.35,1648.62 1871.00,1652.53
             1838.44,1658.79 1832.66,1607.39 1861.00,1600.47 Z
           M 901.00,1601.00
           C 901.00,1601.00 909.00,1601.00 909.00,1601.00
             909.00,1601.00 909.00,1632.00 909.00,1632.00
             909.05,1636.12 909.21,1639.62 912.28,1642.77
             918.83,1649.52 929.43,1641.83 931.98,1636.96
             933.41,1634.22 933.00,1628.23 933.00,1625.00
             933.00,1625.00 933.00,1601.00 933.00,1601.00
             933.00,1601.00 941.00,1601.00 941.00,1601.00
             941.00,1601.00 941.00,1652.00 941.00,1652.00
             941.00,1652.00 933.00,1652.00 933.00,1652.00
             933.00,1652.00 933.00,1645.00 933.00,1645.00
             929.79,1647.35 926.72,1650.01 923.00,1651.52
             914.55,1654.96 904.97,1652.56 902.35,1643.00
             900.14,1634.92 901.00,1610.72 901.00,1601.00 Z
           M 1310.00,1601.00
           C 1310.00,1601.00 1333.00,1601.00 1333.00,1601.00
             1333.00,1601.00 1333.00,1652.00 1333.00,1652.00
             1333.00,1652.00 1325.00,1652.00 1325.00,1652.00
             1325.00,1652.00 1325.00,1608.00 1325.00,1608.00
             1325.00,1608.00 1310.00,1608.00 1310.00,1608.00
             1310.00,1608.00 1310.00,1601.00 1310.00,1601.00 Z
           M 1576.00,1601.00
           C 1576.00,1601.00 1584.00,1601.00 1584.00,1601.00
             1584.00,1601.00 1584.00,1632.00 1584.00,1632.00
             1584.05,1636.12 1584.21,1639.62 1587.28,1642.77
             1593.83,1649.52 1604.43,1641.83 1606.98,1636.96
             1608.41,1634.22 1608.00,1628.23 1608.00,1625.00
             1608.00,1625.00 1608.00,1601.00 1608.00,1601.00
             1608.00,1601.00 1616.00,1601.00 1616.00,1601.00
             1616.00,1601.00 1616.00,1652.00 1616.00,1652.00
             1616.00,1652.00 1608.00,1652.00 1608.00,1652.00
             1608.00,1652.00 1608.00,1645.00 1608.00,1645.00
             1604.79,1647.35 1601.72,1650.01 1598.00,1651.52
             1589.55,1654.96 1579.97,1652.56 1577.35,1643.00
             1575.14,1634.92 1576.00,1610.72 1576.00,1601.00 Z
           M 1863.00,1607.34
           C 1843.85,1612.92 1848.98,1650.10 1869.00,1645.61
             1885.57,1641.89 1886.23,1604.84 1863.00,1607.34 Z" />
</svg>
