<?xml version="1.0" encoding="UTF-8" standalone="no"?>
<!DOCTYPE svg PUBLIC "-//W3C//DTD SVG 20010904//EN"
              "http://www.w3.org/TR/2001/REC-SVG-20010904/DTD/svg10.dtd">

<svg xmlns="http://www.w3.org/2000/svg"
     width="8.5in" height="11in"
     viewBox="0 0 2550 3300">
  <path id="Path"
        fill="#B9B9B9" stroke="black" stroke-width="1px"
        d="M 1008.94,1390.00
           C 1008.94,1390.00 952.80,1562.00 952.80,1562.00
             952.80,1562.00 928.75,1562.00 928.75,1562.00
             928.75,1562.00 872.47,1390.00 872.47,1390.00
             872.47,1390.00 893.47,1390.00 893.47,1390.00
             893.47,1390.00 940.70,1538.45 940.70,1538.45
             940.70,1538.45 988.19,1390.00 988.19,1390.00
             988.19,1390.00 1008.94,1390.00 1008.94,1390.00 Z
           M 1092.22,1537.00
           C 1092.22,1537.00 1057.31,1537.00 1057.31,1537.00
             1057.31,1542.51 1058.98,1547.06 1062.31,1550.64
             1065.66,1554.21 1069.75,1556.00 1074.59,1556.00
             1079.22,1556.00 1083.99,1555.34 1088.91,1554.00
             1088.91,1554.00 1090.22,1561.00 1090.22,1561.00
             1085.73,1562.33 1080.49,1563.00 1074.50,1563.00
             1066.95,1563.00 1060.86,1560.59 1056.23,1555.78
             1051.61,1550.97 1049.30,1544.48 1049.30,1536.31
             1049.30,1528.30 1051.37,1521.92 1055.52,1517.16
             1059.67,1512.39 1065.04,1510.00 1071.61,1510.00
             1077.47,1510.00 1082.38,1512.24 1086.31,1516.72
             1090.25,1521.19 1092.22,1527.15 1092.22,1534.59
             1092.22,1534.59 1092.22,1537.00 1092.22,1537.00 Z
           M 1083.92,1530.00
           C 1083.92,1526.34 1082.68,1523.27 1080.20,1520.77
             1077.73,1518.26 1074.97,1517.00 1071.91,1517.00
             1067.97,1517.00 1064.70,1518.20 1062.11,1520.61
             1059.52,1523.01 1058.09,1526.14 1057.80,1530.00
             1057.80,1530.00 1083.92,1530.00 1083.92,1530.00 Z
           M 1172.00,1562.00
           C 1172.00,1562.00 1151.20,1562.00 1151.20,1562.00
             1151.20,1562.00 1151.20,1500.00 1151.20,1500.00
             1151.20,1500.00 1137.92,1500.00 1137.92,1500.00
             1137.92,1500.00 1137.92,1493.00 1137.92,1493.00
             1137.92,1493.00 1158.81,1493.00 1158.81,1493.00
             1158.81,1493.00 1158.81,1555.00 1158.81,1555.00
             1158.81,1555.00 1172.00,1555.00 1172.00,1555.00
             1172.00,1555.00 1172.00,1562.00 1172.00,1562.00 Z
           M 1261.98,1562.00
           C 1261.98,1562.00 1254.41,1562.00 1254.41,1562.00
             1253.79,1559.75 1253.48,1556.75 1253.48,1553.00
             1249.15,1559.67 1243.26,1563.00 1235.81,1563.00
             1232.03,1563.00 1228.70,1561.67 1225.81,1559.02
             1222.94,1556.35 1221.50,1552.92 1221.50,1548.73
             1221.50,1546.26 1222.00,1544.06 1223.02,1542.16
             1224.02,1540.25 1225.50,1538.65 1227.45,1537.34
             1229.41,1536.04 1231.79,1535.01 1234.58,1534.25
             1237.38,1533.49 1240.70,1532.96 1244.55,1532.67
             1244.55,1532.67 1253.09,1532.00 1253.09,1532.00
             1253.09,1532.00 1253.09,1529.64 1253.09,1529.64
             1253.09,1521.21 1249.02,1517.00 1240.89,1517.00
             1238.96,1517.00 1236.52,1517.40 1233.58,1518.19
             1230.63,1518.98 1228.10,1519.92 1225.98,1521.00
             1225.98,1521.00 1223.98,1514.00 1223.98,1514.00
             1230.92,1511.34 1237.37,1510.00 1243.33,1510.00
             1254.91,1510.00 1260.70,1516.12 1260.70,1528.38
             1260.70,1528.38 1260.70,1550.20 1260.70,1550.20
             1260.70,1554.62 1261.13,1558.55 1261.98,1562.00 Z
           M 1253.09,1546.00
           C 1253.09,1546.00 1253.09,1539.00 1253.09,1539.00
             1246.22,1539.57 1241.50,1540.11 1238.95,1540.61
             1236.40,1541.11 1234.19,1542.04 1232.31,1543.41
             1230.44,1544.76 1229.50,1546.60 1229.50,1548.92
             1229.50,1551.04 1230.30,1552.75 1231.89,1554.05
             1233.48,1555.35 1235.52,1556.00 1238.00,1556.00
             1240.70,1556.00 1243.38,1555.12 1246.05,1553.34
             1248.72,1551.56 1251.07,1549.12 1253.09,1546.00 Z
           M 1345.03,1562.00
           C 1345.03,1562.00 1305.91,1562.00 1305.91,1562.00
             1305.91,1562.00 1305.91,1557.70 1305.91,1557.70
             1305.91,1557.70 1334.92,1518.00 1334.92,1518.00
             1334.92,1518.00 1306.59,1518.00 1306.59,1518.00
             1306.59,1518.00 1306.59,1511.00 1306.59,1511.00
             1306.59,1511.00 1345.03,1511.00 1345.03,1511.00
             1345.03,1511.00 1345.03,1514.94 1345.03,1514.94
             1345.03,1514.94 1316.02,1555.00 1316.02,1555.00
             1316.02,1555.00 1345.03,1555.00 1345.03,1555.00
             1345.03,1555.00 1345.03,1562.00 1345.03,1562.00 Z
           M 1430.52,1582.00
           C 1430.52,1582.00 1422.89,1582.00 1422.89,1582.00
             1422.89,1582.00 1422.89,1554.00 1422.89,1554.00
             1421.33,1556.62 1419.09,1558.77 1416.17,1560.47
             1413.27,1562.16 1410.20,1563.00 1406.97,1563.00
             1401.14,1563.00 1396.54,1560.46 1393.16,1555.39
             1389.77,1550.32 1388.08,1543.86 1388.08,1536.02
             1388.08,1528.50 1389.83,1522.28 1393.34,1517.38
             1396.86,1512.46 1401.55,1510.00 1407.41,1510.00
             1413.82,1510.00 1418.98,1512.67 1422.89,1518.00
             1422.89,1518.00 1422.89,1511.00 1422.89,1511.00
             1422.89,1511.00 1430.52,1511.00 1430.52,1511.00
             1430.52,1511.00 1430.52,1582.00 1430.52,1582.00 Z
           M 1422.89,1546.33
           C 1422.89,1546.33 1422.89,1526.00 1422.89,1526.00
             1419.24,1520.00 1414.85,1517.00 1409.72,1517.00
             1405.52,1517.00 1402.20,1518.86 1399.75,1522.58
             1397.31,1526.29 1396.09,1530.94 1396.09,1536.53
             1396.09,1542.21 1397.24,1546.88 1399.53,1550.53
             1401.82,1554.18 1404.97,1556.00 1408.98,1556.00
             1410.90,1556.00 1412.83,1555.50 1414.78,1554.50
             1416.74,1553.50 1418.58,1552.00 1420.30,1550.00
             1422.02,1547.99 1422.89,1546.77 1422.89,1546.33 Z
           M 1515.61,1562.00
           C 1515.61,1562.00 1508.00,1562.00 1508.00,1562.00
             1508.00,1562.00 1508.00,1554.00 1508.00,1554.00
             1502.53,1560.00 1496.77,1563.00 1490.72,1563.00
             1481.18,1563.00 1476.41,1557.23 1476.41,1545.70
             1476.41,1545.70 1476.41,1511.00 1476.41,1511.00
             1476.41,1511.00 1484.02,1511.00 1484.02,1511.00
             1484.02,1511.00 1484.02,1543.23 1484.02,1543.23
             1484.02,1547.53 1484.70,1550.73 1486.06,1552.84
             1487.44,1554.95 1489.75,1556.00 1493.00,1556.00
             1497.66,1556.00 1502.66,1553.00 1508.00,1547.00
             1508.00,1547.00 1508.00,1511.00 1508.00,1511.00
             1508.00,1511.00 1515.61,1511.00 1515.61,1511.00
             1515.61,1511.00 1515.61,1562.00 1515.61,1562.00 Z
           M 1602.22,1537.00
           C 1602.22,1537.00 1567.31,1537.00 1567.31,1537.00
             1567.31,1542.51 1568.98,1547.06 1572.31,1550.64
             1575.66,1554.21 1579.75,1556.00 1584.59,1556.00
             1589.22,1556.00 1593.99,1555.34 1598.91,1554.00
             1598.91,1554.00 1600.22,1561.00 1600.22,1561.00
             1595.73,1562.33 1590.49,1563.00 1584.50,1563.00
             1576.95,1563.00 1570.86,1560.59 1566.23,1555.78
             1561.61,1550.97 1559.30,1544.48 1559.30,1536.31
             1559.30,1528.30 1561.37,1521.92 1565.52,1517.16
             1569.67,1512.39 1575.04,1510.00 1581.61,1510.00
             1587.47,1510.00 1592.38,1512.24 1596.31,1516.72
             1600.25,1521.19 1602.22,1527.15 1602.22,1534.59
             1602.22,1534.59 1602.22,1537.00 1602.22,1537.00 Z
           M 1593.92,1530.00
           C 1593.92,1526.34 1592.68,1523.27 1590.20,1520.77
             1587.73,1518.26 1584.97,1517.00 1581.91,1517.00
             1577.97,1517.00 1574.70,1518.20 1572.11,1520.61
             1569.52,1523.01 1568.09,1526.14 1567.80,1530.00
             1567.80,1530.00 1593.92,1530.00 1593.92,1530.00 Z
           M 1685.03,1562.00
           C 1685.03,1562.00 1645.91,1562.00 1645.91,1562.00
             1645.91,1562.00 1645.91,1557.70 1645.91,1557.70
             1645.91,1557.70 1674.92,1518.00 1674.92,1518.00
             1674.92,1518.00 1646.59,1518.00 1646.59,1518.00
             1646.59,1518.00 1646.59,1511.00 1646.59,1511.00
             1646.59,1511.00 1685.03,1511.00 1685.03,1511.00
             1685.03,1511.00 1685.03,1514.94 1685.03,1514.94
             1685.03,1514.94 1656.02,1555.00 1656.02,1555.00
             1656.02,1555.00 1685.03,1555.00 1685.03,1555.00
             1685.03,1555.00 1685.03,1562.00 1685.03,1562.00 Z" />
</svg>
