<?xml version="1.0" encoding="UTF-8" standalone="no"?>
<!DOCTYPE svg PUBLIC "-//W3C//DTD SVG 20010904//EN"
              "http://www.w3.org/TR/2001/REC-SVG-20010904/DTD/svg10.dtd">

<svg xmlns="http://www.w3.org/2000/svg"
     width="8.52in" height="11.0133in"
     viewBox="0 0 2556 3304">
  <path id="V3"
        fill="#E5EFFF" stroke="#C6C6C6" stroke-width="1"
        d="M 2048.00,1281.00
           C 2048.00,1281.00 2086.00,1275.00 2086.00,1275.00
             2086.51,1281.93 2082.78,1286.94 2079.75,1293.00
             2079.75,1293.00 2065.00,1323.00 2065.00,1323.00
             2065.00,1323.00 2094.00,1318.00 2094.00,1318.00
             2094.00,1318.00 2095.00,1325.00 2095.00,1325.00
             2095.00,1325.00 2056.00,1331.00 2056.00,1331.00
             2056.20,1322.92 2059.23,1319.06 2062.75,1312.00
             2062.75,1312.00 2077.00,1284.00 2077.00,1284.00
             2077.00,1284.00 2049.00,1288.00 2049.00,1288.00
             2049.00,1288.00 2048.00,1281.00 2048.00,1281.00 Z
           M 1962.00,1347.00
           C 1952.83,1351.70 1938.32,1354.79 1929.00,1349.01
             1915.05,1340.35 1911.83,1314.92 1925.02,1304.39
             1933.93,1297.27 1947.36,1298.87 1954.21,1308.04
             1956.32,1310.86 1960.39,1319.07 1957.96,1322.42
             1956.52,1324.41 1951.35,1324.85 1949.00,1325.25
             1949.00,1325.25 1925.00,1330.00 1925.00,1330.00
             1926.34,1332.56 1927.68,1335.77 1929.41,1337.98
             1939.12,1350.40 1950.53,1342.71 1960.00,1341.00
             1960.00,1341.00 1962.00,1347.00 1962.00,1347.00 Z
           M 1950.00,1318.00
           C 1947.97,1308.47 1938.22,1303.67 1930.04,1309.65
             1925.81,1312.75 1924.99,1316.18 1924.00,1321.00
             1930.89,1322.64 1942.62,1319.00 1950.00,1318.00 Z
           M 1813.00,1323.00
           C 1813.00,1323.00 1821.00,1322.00 1821.00,1322.00
             1821.00,1322.00 1829.00,1372.00 1829.00,1372.00
             1829.00,1372.00 1822.00,1373.00 1822.00,1373.00
             1822.00,1373.00 1821.00,1366.00 1821.00,1366.00
             1818.46,1368.53 1814.94,1372.31 1812.00,1374.18
             1804.07,1379.25 1794.23,1378.03 1789.92,1369.00
             1787.90,1364.77 1786.88,1356.83 1786.08,1352.00
             1786.08,1352.00 1782.00,1328.00 1782.00,1328.00
             1782.00,1328.00 1790.00,1327.00 1790.00,1327.00
             1790.00,1327.00 1794.20,1353.00 1794.20,1353.00
             1794.97,1357.02 1795.28,1361.53 1797.70,1364.96
             1805.75,1376.36 1817.54,1361.91 1818.49,1357.00
             1818.97,1354.47 1817.56,1348.81 1817.08,1346.00
             1817.08,1346.00 1813.00,1323.00 1813.00,1323.00 Z
           M 965.00,1476.00
           C 965.00,1476.00 978.87,1375.00 978.87,1375.00
             978.87,1375.00 982.58,1348.00 982.58,1348.00
             982.58,1348.00 985.01,1336.58 985.01,1336.58
             985.01,1336.58 993.00,1333.80 993.00,1333.80
             993.00,1333.80 1015.00,1330.00 1015.00,1330.00
             1015.00,1330.00 1010.15,1368.00 1010.15,1368.00
             1010.15,1368.00 994.72,1478.00 994.72,1478.00
             994.72,1478.00 989.00,1520.00 989.00,1520.00
             989.00,1520.00 967.00,1523.87 967.00,1523.87
             967.00,1523.87 957.53,1523.87 957.53,1523.87
             957.53,1523.87 950.14,1512.00 950.14,1512.00
             950.14,1512.00 934.08,1482.00 934.08,1482.00
             934.08,1482.00 888.69,1397.00 888.69,1397.00
             888.69,1397.00 873.75,1369.00 873.75,1369.00
             873.75,1369.00 868.00,1356.00 868.00,1356.00
             868.00,1356.00 889.00,1352.11 889.00,1352.11
             889.00,1352.11 898.61,1352.11 898.61,1352.11
             898.61,1352.11 905.25,1363.00 905.25,1363.00
             905.25,1363.00 917.26,1386.00 917.26,1386.00
             917.26,1386.00 945.74,1440.00 945.74,1440.00
             945.74,1440.00 965.00,1476.00 965.00,1476.00 Z
           M 1680.00,1346.00
           C 1680.00,1346.00 1688.00,1345.00 1688.00,1345.00
             1688.00,1345.00 1690.92,1363.00 1690.92,1363.00
             1690.92,1363.00 1700.00,1415.00 1700.00,1415.00
             1700.00,1415.00 1692.00,1416.00 1692.00,1416.00
             1692.00,1416.00 1688.00,1390.00 1688.00,1390.00
             1681.81,1396.58 1678.72,1400.46 1669.00,1399.96
             1645.56,1398.73 1640.70,1345.89 1669.00,1347.61
             1673.81,1347.90 1676.89,1349.84 1681.00,1352.00
             1681.00,1352.00 1680.00,1346.00 1680.00,1346.00 Z
           M 1668.00,1354.41
           C 1656.02,1358.21 1656.05,1373.16 1660.09,1383.00
             1662.65,1389.21 1667.75,1394.29 1675.00,1392.58
             1677.51,1391.99 1679.86,1390.48 1681.67,1388.67
             1687.46,1382.89 1685.78,1378.11 1684.59,1371.00
             1682.91,1361.02 1680.16,1353.30 1668.00,1354.41 Z
           M 1516.00,1375.00
           C 1516.00,1375.00 1554.00,1368.00 1554.00,1368.00
             1555.25,1374.69 1551.69,1379.13 1548.75,1385.00
             1548.75,1385.00 1534.00,1416.00 1534.00,1416.00
             1534.00,1416.00 1562.00,1412.00 1562.00,1412.00
             1562.00,1412.00 1563.00,1419.00 1563.00,1419.00
             1563.00,1419.00 1524.00,1425.00 1524.00,1425.00
             1524.36,1417.66 1527.53,1412.47 1530.75,1406.00
             1530.75,1406.00 1545.00,1377.00 1545.00,1377.00
             1545.00,1377.00 1518.00,1382.00 1518.00,1382.00
             1518.00,1382.00 1516.00,1375.00 1516.00,1375.00 Z
           M 1386.00,1401.00
           C 1390.12,1398.66 1393.46,1396.85 1398.00,1395.36
             1400.56,1394.51 1405.35,1393.34 1408.00,1393.21
             1426.43,1392.26 1426.27,1417.11 1428.80,1430.00
             1428.80,1430.00 1432.00,1442.00 1432.00,1442.00
             1432.00,1442.00 1424.00,1443.00 1424.00,1443.00
             1424.00,1443.00 1421.00,1436.00 1421.00,1436.00
             1416.54,1444.30 1407.50,1449.86 1398.00,1445.99
             1388.04,1441.94 1387.50,1428.91 1395.04,1422.22
             1397.53,1420.02 1399.95,1418.99 1403.00,1417.81
             1407.67,1416.01 1413.02,1414.45 1418.00,1414.00
             1417.57,1411.94 1417.16,1409.91 1416.24,1408.00
             1409.62,1394.36 1396.88,1404.52 1389.00,1407.00
             1389.00,1407.00 1386.00,1401.00 1386.00,1401.00 Z
           M 1250.00,1411.00
           C 1247.63,1400.87 1252.64,1404.13 1269.00,1400.00
             1269.00,1400.00 1277.00,1444.00 1277.00,1444.00
             1277.61,1447.17 1278.75,1457.48 1280.74,1459.18
             1283.09,1461.59 1290.03,1459.54 1293.00,1459.18
             1293.00,1459.18 1294.00,1466.00 1294.00,1466.00
             1294.00,1466.00 1273.00,1469.00 1273.00,1469.00
             1273.00,1469.00 1264.92,1421.00 1264.92,1421.00
             1264.92,1421.00 1263.00,1409.00 1263.00,1409.00
             1263.00,1409.00 1250.00,1411.00 1250.00,1411.00 Z
           M 1416.85,1421.61
           C 1411.93,1421.97 1403.66,1424.45 1400.31,1428.21
             1396.17,1432.88 1397.99,1440.15 1406.00,1439.85
             1411.56,1439.65 1416.97,1435.03 1418.99,1430.00
             1420.40,1426.51 1420.74,1423.06 1416.85,1421.61 Z
           M 1164.00,1488.00
           C 1158.75,1490.68 1152.88,1492.25 1147.00,1492.83
             1142.26,1493.30 1137.31,1492.68 1133.00,1490.60
             1119.05,1483.86 1114.39,1461.05 1123.56,1449.02
             1132.38,1437.43 1148.92,1438.20 1157.20,1450.00
             1160.39,1454.55 1161.00,1458.71 1162.00,1464.00
             1162.00,1464.00 1128.00,1470.00 1128.00,1470.00
             1128.65,1472.72 1129.10,1474.61 1130.70,1477.00
             1139.43,1490.08 1150.07,1485.74 1162.00,1481.00
             1162.00,1481.00 1164.00,1488.00 1164.00,1488.00 Z
           M 1152.00,1459.00
           C 1150.72,1447.94 1139.35,1445.13 1132.10,1450.65
             1127.68,1454.02 1127.13,1457.86 1127.00,1463.00
             1127.00,1463.00 1152.00,1459.00 1152.00,1459.00 Z
           M 1837.00,1521.46
           C 1858.51,1518.50 1867.21,1536.36 1867.00,1555.00
             1866.85,1567.97 1860.28,1577.46 1847.00,1579.68
             1817.46,1584.61 1809.66,1545.28 1821.55,1530.04
             1825.73,1524.69 1830.65,1522.88 1837.00,1521.46 Z
           M 1712.00,1524.00
           C 1714.07,1523.46 1717.66,1522.32 1719.69,1523.31
             1722.72,1524.79 1723.82,1537.47 1724.41,1541.00
             1724.41,1541.00 1734.00,1597.00 1734.00,1597.00
             1734.00,1597.00 1725.00,1598.00 1725.00,1598.00
             1725.00,1598.00 1712.00,1524.00 1712.00,1524.00 Z
           M 1839.00,1529.32
           C 1834.71,1530.20 1831.40,1531.37 1828.70,1535.09
             1823.01,1542.95 1824.86,1574.25 1845.00,1571.81
             1865.33,1569.35 1861.01,1528.09 1839.00,1529.32 Z
           M 1615.00,1562.00
           C 1617.60,1561.37 1621.95,1560.14 1623.99,1562.60
             1625.30,1564.17 1626.19,1571.64 1626.59,1574.00
             1626.59,1574.00 1631.25,1601.00 1631.25,1601.00
             1631.66,1603.50 1633.25,1610.62 1632.36,1612.69
             1631.29,1615.21 1627.36,1615.55 1625.00,1616.00
             1625.00,1616.00 1624.00,1612.00 1624.00,1612.00
             1619.62,1614.54 1615.82,1618.22 1611.00,1619.89
             1608.50,1620.76 1606.62,1620.93 1604.00,1620.98
             1587.21,1621.33 1586.50,1608.92 1584.00,1596.00
             1584.00,1596.00 1580.59,1576.00 1580.59,1576.00
             1580.23,1573.66 1579.39,1569.88 1581.57,1568.18
             1585.35,1565.22 1588.48,1568.29 1589.37,1572.02
             1589.37,1572.02 1593.61,1596.00 1593.61,1596.00
             1594.42,1600.28 1595.31,1605.51 1598.39,1608.77
             1605.93,1616.76 1618.86,1606.78 1620.81,1602.00
             1622.04,1598.97 1619.41,1586.82 1618.75,1583.00
             1618.75,1583.00 1615.00,1562.00 1615.00,1562.00 Z
           M 879.00,1616.00
           C 870.12,1616.68 862.92,1610.82 855.00,1607.31
             845.59,1603.13 832.28,1599.83 822.00,1601.44
             805.51,1604.02 792.36,1611.13 783.88,1626.00
             777.20,1637.70 776.29,1650.95 777.85,1664.00
             780.57,1686.82 790.26,1710.47 814.00,1718.25
             832.95,1724.46 851.68,1718.99 867.00,1706.99
             873.30,1702.05 877.12,1697.86 882.42,1692.02
             884.06,1690.21 886.89,1686.96 889.69,1687.74
             892.33,1688.49 892.95,1694.65 893.39,1697.00
             893.39,1697.00 897.08,1719.00 897.08,1719.00
             897.53,1721.68 898.87,1726.46 897.81,1728.91
             896.40,1732.16 888.21,1736.86 885.00,1738.80
             871.68,1746.84 859.24,1751.77 844.00,1754.80
             822.06,1759.17 798.65,1759.21 778.00,1749.51
             751.02,1736.84 737.03,1711.13 731.40,1683.00
             730.30,1677.53 729.07,1670.53 729.00,1665.00
             729.00,1665.00 729.00,1651.00 729.00,1651.00
             729.04,1626.63 740.59,1602.32 760.00,1587.50
             780.24,1572.05 807.91,1565.96 833.00,1566.00
             841.42,1566.01 852.80,1567.59 861.00,1569.63
             863.46,1570.24 868.65,1571.24 870.44,1572.85
             872.83,1574.99 873.38,1581.79 873.92,1585.00
             873.92,1585.00 879.00,1616.00 879.00,1616.00 Z
           M 1501.00,1624.00
           C 1501.77,1626.52 1502.98,1630.27 1501.81,1632.82
             1498.10,1640.87 1479.50,1642.33 1472.00,1639.94
             1458.06,1635.51 1454.85,1620.85 1455.00,1608.00
             1455.14,1596.27 1461.55,1587.63 1473.00,1584.49
             1478.00,1583.12 1490.50,1581.86 1494.07,1586.43
             1495.77,1588.62 1495.88,1592.34 1496.00,1595.00
             1486.29,1592.39 1477.88,1587.91 1469.21,1596.33
             1459.39,1605.86 1464.79,1630.43 1479.00,1632.78
             1489.38,1634.49 1493.19,1627.62 1501.00,1624.00 Z
           M 1351.00,1589.00
           C 1351.00,1589.00 1361.00,1588.00 1361.00,1588.00
             1362.07,1596.19 1363.23,1598.08 1352.00,1599.00
             1352.00,1599.00 1351.00,1589.00 1351.00,1589.00 Z
           M 1354.00,1607.00
           C 1356.56,1606.38 1360.85,1605.12 1362.83,1607.57
             1364.10,1609.15 1365.65,1619.42 1366.08,1622.00
             1366.08,1622.00 1372.00,1660.00 1372.00,1660.00
             1372.00,1660.00 1363.93,1659.36 1363.93,1659.36
             1363.93,1659.36 1360.58,1645.00 1360.58,1645.00
             1360.58,1645.00 1354.00,1607.00 1354.00,1607.00 Z
           M 1248.00,1632.00
           C 1253.73,1627.95 1256.71,1624.05 1264.00,1622.52
             1266.19,1622.06 1269.37,1621.65 1270.99,1623.60
             1272.09,1624.91 1272.67,1629.21 1273.00,1631.00
             1265.23,1631.02 1252.09,1633.69 1250.40,1643.00
             1250.40,1643.00 1254.25,1669.00 1254.25,1669.00
             1254.65,1671.29 1256.13,1676.50 1254.89,1678.44
             1253.50,1680.61 1249.30,1680.80 1247.00,1681.00
             1247.00,1681.00 1240.58,1644.00 1240.58,1644.00
             1240.04,1641.05 1237.61,1630.70 1238.61,1628.43
             1239.85,1625.63 1244.46,1626.03 1247.00,1626.00
             1247.00,1626.00 1248.00,1632.00 1248.00,1632.00 Z
           M 1131.00,1652.00
           C 1141.10,1647.26 1138.94,1642.15 1155.00,1642.00
             1155.00,1642.00 1156.00,1651.00 1156.00,1651.00
             1148.28,1651.17 1137.42,1653.71 1134.45,1662.00
             1133.49,1664.69 1134.76,1670.08 1135.25,1673.00
             1135.25,1673.00 1140.00,1699.19 1140.00,1699.19
             1137.57,1699.88 1133.10,1701.81 1131.01,1699.19
             1129.65,1697.81 1128.36,1687.64 1127.92,1685.00
             1127.92,1685.00 1122.00,1647.00 1122.00,1647.00
             1122.00,1647.00 1131.00,1646.00 1131.00,1646.00
             1131.00,1646.00 1131.00,1652.00 1131.00,1652.00 Z
           M 994.00,1669.00
           C 994.00,1669.00 997.80,1690.00 997.80,1690.00
             998.99,1696.17 999.95,1707.21 1004.39,1711.61
             1012.23,1719.39 1025.66,1708.68 1026.83,1703.96
             1026.83,1703.96 1021.60,1667.14 1021.60,1667.14
             1022.16,1663.32 1026.99,1663.26 1030.00,1663.00
             1030.00,1663.00 1036.59,1701.00 1036.59,1701.00
             1037.05,1703.74 1039.27,1713.57 1038.39,1715.57
             1037.15,1718.37 1032.54,1717.97 1030.00,1718.00
             1030.00,1718.00 1029.00,1714.00 1029.00,1714.00
             1026.00,1716.86 1023.68,1719.07 1020.00,1721.10
             1010.73,1726.20 999.22,1725.09 993.99,1715.00
             991.30,1709.79 990.74,1703.70 989.75,1698.00
             989.75,1698.00 985.00,1671.00 985.00,1671.00
             985.00,1671.00 994.00,1669.00 994.00,1669.00 Z" />
</svg>
